<?xml version="1.0" encoding="utf-8"?>
<!-- Generator: Adobe Illustrator 21.1.0, SVG Export Plug-In . SVG Version: 6.00 Build 0)  -->
<svg version="1.1" id="Ebene_1" xmlns="http://www.w3.org/2000/svg" xmlns:xlink="http://www.w3.org/1999/xlink" x="0px" y="0px"
	 viewBox="0 0 280 100" style="enable-background:new 0 0 280 100;" xml:space="preserve">
<style type="text/css">
	.st0{fill:#6BE6B0;}
</style>
<title>Zeichenfläche 1</title>
<g>
	<path class="st0" d="M221.2,47.5h33.1v13.6h-33.1V47.5z M214.5,41.5v25.7h46.6V41.5H214.5z"/>
	<g>
		<path d="M18.9,36.3c0-2.2,1.7-3.9,3.8-3.9c2.2,0,3.9,1.7,3.9,3.9c0,2.1-1.7,3.8-3.8,3.8C20.6,40.1,18.9,38.4,18.9,36.3z M26,67.4
			l-6.5,0l0-25.8l6.5,0L26,67.4z"/>
		<path d="M50.6,64.8c-1.5,1.6-4.3,3-7.6,3c-8,0-13.3-5.5-13.3-13.2c0-7.5,5.3-13.4,13-13.4c3.3,0,5.8,1,7.4,2.5l0-11.5l6.5,0
			l0.1,35.2l-6,0L50.6,64.8z M43.3,62.1c4.3,0,7.1-3.3,7.1-7.6c0-4.3-2.9-7.6-7.1-7.5c-4.3,0-7.1,3.3-7.1,7.6
			C36.2,58.9,39.1,62.1,43.3,62.1z"/>
		<path d="M67.4,56.6c0.3,3.4,2.8,5.5,6.4,5.5c3.3,0,5.1-1.7,6.5-3.9l4.8,2.9c-1.5,3.2-5,6.7-11.3,6.7c-7.8,0-13.2-5-13.2-13.2
			c0-7.7,5.2-13.4,12.6-13.4c7.8,0,12.6,5,12.6,12.7c0,0.6,0,1.5-0.1,2.6L67.4,56.6z M67.5,51.7l11.7,0c-0.3-2.9-2.5-5.1-6-5.1
			C69.9,46.6,67.8,48.8,67.5,51.7z M80.2,33.2l-3.9,6.7l-6.1,0l3.6-6.7L80.2,33.2z"/>
		<path d="M109.5,64.7c-1,1.3-3.6,3-7.7,3c-7.8,0-13.2-5.3-13.2-13.3c0-7.6,5.3-13.3,13.2-13.3c3.2,0,6.1,1.1,7.6,2.8l0-2.4l6.1,0
			l0,25.8l-6,0L109.5,64.7z M102.2,62c4.3,0,7.1-3.2,7.1-7.6c0-4.3-2.9-7.6-7.1-7.5c-4.4,0-7.1,3.3-7.1,7.6
			C95,58.8,97.9,62,102.2,62z"/>
		<path d="M128.2,41.5l3.9,0l0,5.4l-3.9,0l0,12c0,1.9,0.6,2.7,2.5,2.7l1.5,0l0,5.5c-0.1,0-1.3,0.3-3.5,0.3c-4.9,0-6.9-2.4-6.9-6.7
			l0-13.8l-2.4,0l0-5.4l2.4,0l0-4l6.5,0L128.2,41.5z"/>
		<path d="M135.6,36.1c0-2.2,1.7-3.9,3.8-3.9c2.2,0,3.9,1.7,3.9,3.9c0,2.1-1.7,3.8-3.8,3.8C137.3,39.9,135.6,38.2,135.6,36.1z
			 M142.7,67.2l-6.5,0l0-25.8l6.5,0L142.7,67.2z"/>
		<path d="M158.2,59.1l5.8-17.7l6.7,0l-9.1,25.8l-7.1,0l-9.3-25.7l7.1,0L158.2,59.1z"/>
		<path d="M178.1,56.4c0.3,3.4,2.8,5.5,6.4,5.5c3.3,0,5.1-1.7,6.5-3.9l4.8,2.9c-1.5,3.2-5,6.7-11.3,6.7c-7.8,0-13.2-5-13.2-13.2
			c0-7.7,5.2-13.4,12.6-13.4c7.8,0,12.6,5,12.6,12.7c0,0.6,0,1.5-0.1,2.6L178.1,56.4z M178.2,51.5l11.6,0c-0.3-2.9-2.5-5.1-6-5.1
			C180.6,46.4,178.6,48.6,178.2,51.5z"/>
	</g>
</g>
</svg>
