<?xml version="1.0" standalone="no"?>
<!DOCTYPE svg PUBLIC "-//W3C//DTD SVG 20010904//EN"
 "http://www.w3.org/TR/2001/REC-SVG-20010904/DTD/svg10.dtd">
<svg version="1.0" xmlns="http://www.w3.org/2000/svg"
 width="400.000000pt" height="400.000000pt" viewBox="0 0 400.000000 400.000000"
 preserveAspectRatio="xMidYMid meet">
<metadata>
Created by potrace 1.11, written by Peter Selinger 2001-2013
</metadata>
<g transform="translate(0.000000,400.000000) scale(0.100000,-0.100000)"
fill="#000000" stroke="none">
<path d="M1373 3482 c-27 -4 -30 -22 -5 -29 25 -6 91 -231 71 -243 -22 -14 -4
-22 35 -15 35 7 52 35 22 35 -10 0 -27 38 -50 114 -20 63 -36 119 -36 124 0
15 -11 19 -37 14z"/>
<path d="M1905 3470 c-3 -6 0 -13 8 -16 21 -8 12 -145 -10 -158 -21 -11 1 -26
40 -26 27 0 39 24 16 32 -8 3 -9 20 -5 53 6 41 13 54 39 73 l32 22 3 -71 c2
-41 -2 -77 -8 -83 -18 -18 -11 -26 25 -26 36 0 43 8 24 27 -5 5 -9 32 -7 58 3
42 7 51 33 66 17 10 33 18 38 18 11 1 8 -137 -3 -144 -21 -13 -9 -25 25 -25
19 0 35 5 35 10 0 6 -4 10 -10 10 -6 0 -10 35 -10 85 0 97 -11 111 -62 80 -29
-17 -30 -16 -49 4 l-20 21 -38 -20 c-39 -19 -39 -19 -44 0 -5 21 -41 28 -52
10z"/>
<path d="M2524 3459 c-10 -17 13 -36 27 -22 12 12 4 33 -11 33 -5 0 -12 -5
-16 -11z"/>
<path d="M2266 3435 c-9 -24 3 -38 20 -24 8 7 27 9 49 5 57 -11 45 -31 -40
-67 -57 -24 -60 -27 -60 -59 0 -34 1 -34 60 -47 33 -7 71 -12 85 -12 23 0 23
1 8 13 -16 12 -17 18 -3 82 8 38 15 74 15 81 0 17 -27 29 -81 37 -38 6 -48 4
-53 -9z m90 -115 c-3 -11 -9 -29 -12 -40 -5 -18 -11 -20 -42 -14 -48 9 -52 12
-45 30 6 16 57 42 86 43 14 1 17 -4 13 -19z"/>
<path d="M1562 3427 c-35 -8 -42 -14 -40 -30 3 -24 28 -36 28 -14 0 17 21 27
56 27 39 0 29 -33 -21 -74 -34 -28 -45 -44 -45 -65 0 -31 20 -54 41 -47 8 3
40 10 72 16 37 8 57 16 57 26 0 8 -6 14 -14 14 -9 0 -17 16 -21 43 -4 23 -11
59 -16 80 -11 41 -19 43 -97 24z m88 -133 c0 -29 -4 -32 -36 -39 -56 -10 -61
7 -18 54 41 46 54 42 54 -15z"/>
<path d="M2480 3391 c0 -5 5 -11 11 -13 18 -6 -22 -140 -43 -146 -28 -7 -21
-18 19 -30 40 -12 63 -3 40 17 -12 10 -11 23 8 89 12 42 21 80 18 85 -6 10
-53 9 -53 -2z"/>
<path d="M2619 3346 c11 -13 9 -26 -11 -77 -13 -37 -30 -64 -40 -67 -26 -6
-22 -21 8 -32 36 -14 47 -12 40 6 -4 10 1 36 10 60 14 36 22 45 49 50 63 11
66 6 39 -61 -13 -33 -31 -63 -39 -68 -23 -13 -18 -24 16 -36 41 -14 40 -15 34
12 -4 14 4 50 20 90 35 87 30 100 -35 91 -49 -6 -50 -6 -48 17 3 20 -2 25 -26
27 -26 3 -28 2 -17 -12z"/>
<path d="M1119 3270 c-51 -27 -61 -42 -50 -73 10 -26 30 -33 111 -39 47 -4 52
-31 10 -53 -30 -15 -33 -15 -44 1 -17 23 -31 1 -16 -26 13 -25 11 -25 70 5 81
41 63 89 -37 101 -43 4 -64 11 -68 22 -11 30 48 55 72 31 17 -17 26 7 11 31
-15 24 -14 24 -59 0z"/>
<path d="M3134 3194 c3 -9 -3 -29 -14 -45 l-21 -29 -39 25 c-22 14 -46 25 -54
25 -17 0 -106 -128 -106 -152 0 -13 13 -18 55 -23 48 -6 53 -9 45 -25 -10 -18
-5 -26 29 -45 11 -6 13 -3 8 15 -5 19 10 48 69 134 68 101 73 112 57 123 -23
18 -36 16 -29 -3z m-54 -97 c0 -4 -10 -23 -22 -42 -21 -32 -27 -35 -75 -35
-29 0 -53 2 -53 5 0 4 19 32 41 64 l41 59 34 -22 c18 -11 33 -24 34 -29z"/>
<path d="M930 3148 c-11 -18 -21 -37 -23 -43 -2 -6 -11 -4 -20 4 -14 11 -20
11 -32 1 -18 -15 -20 -34 -2 -27 17 6 99 -115 86 -128 -28 -28 5 -33 39 -6 25
22 28 31 8 31 -7 0 -25 18 -40 41 -27 40 -27 41 -10 84 9 25 20 42 25 39 22
-13 79 -113 73 -128 -8 -21 10 -21 41 0 27 18 34 40 10 31 -10 -4 -29 16 -61
63 -26 39 -53 70 -60 70 -8 0 -23 -15 -34 -32z"/>
<path d="M3187 3021 c3 -13 -11 -37 -46 -75 -28 -31 -51 -60 -51 -64 0 -16 25
-32 50 -32 38 0 57 -15 42 -33 -9 -11 -8 -18 8 -32 11 -10 20 -16 21 -14 0 2
2 14 3 26 1 12 26 47 55 78 41 46 49 60 40 71 -16 19 -40 18 -32 -2 3 -9 -7
-28 -28 -50 -29 -30 -37 -33 -69 -28 -54 10 -58 20 -19 62 69 74 73 80 59 97
-18 21 -39 19 -33 -4z"/>
<path d="M700 2984 c-32 -29 -38 -39 -29 -50 15 -19 29 -18 29 2 0 19 50 65
62 58 13 -8 9 -46 -8 -97 -15 -44 -15 -49 1 -73 21 -32 32 -29 99 26 55 45 73
77 37 65 -13 -4 -30 9 -65 50 -27 31 -56 55 -67 55 -10 0 -37 -16 -59 -36z
m127 -66 c30 -28 28 -38 -8 -67 -42 -33 -56 -17 -39 43 7 26 15 46 18 46 3 0
16 -10 29 -22z"/>
<path d="M496 2931 c-18 -20 -9 -35 16 -26 8 3 24 -6 37 -19 l24 -25 -32 -36
c-17 -20 -31 -42 -31 -49 0 -17 116 -126 135 -126 19 0 35 31 35 69 0 31 21
43 35 20 5 -7 14 -4 26 7 25 22 24 38 0 31 -15 -3 -46 19 -118 84 -54 49 -100
89 -104 89 -3 0 -14 -9 -23 -19z m139 -123 c34 -32 34 -34 24 -81 l-11 -48
-51 44 c-28 24 -52 48 -54 53 -3 9 43 64 53 64 3 0 21 -15 39 -32z"/>
<path d="M3472 2735 c2 -8 -21 -46 -51 -85 -49 -65 -53 -73 -38 -87 14 -15 23
-13 97 16 65 26 84 30 95 21 21 -17 20 8 -1 38 -18 27 -30 28 -36 5 -3 -11
-29 -27 -66 -40 -34 -12 -62 -20 -62 -17 0 3 18 29 40 59 27 36 45 52 55 49
21 -9 19 19 -3 39 -23 21 -34 22 -30 2z"/>
<path d="M1847 2652 c-16 -17 -13 -21 38 -73 30 -30 55 -58 55 -62 0 -13 -182
-197 -195 -197 -7 0 -35 26 -64 57 l-51 57 -21 -21 -22 -21 58 -61 58 -61 -53
-109 c-39 -81 -67 -123 -105 -160 -49 -47 -53 -49 -94 -44 l-43 6 -170 -171
-171 -170 6 -44 c6 -42 4 -45 -51 -101 l-56 -57 20 -20 20 -20 58 55 c31 30
60 55 64 55 4 0 50 -43 101 -95 l95 -95 -59 -60 -59 -60 22 -22 22 -22 58 57
c32 31 61 57 64 57 4 0 50 -21 104 -46 69 -32 114 -61 156 -101 58 -56 59 -57
52 -101 l-7 -44 171 -170 170 -171 45 5 c43 5 46 4 98 -49 54 -55 65 -59 83
-30 9 14 1 27 -44 72 -29 30 -52 57 -49 59 2 3 46 48 98 101 l94 96 59 -58 58
-57 20 20 20 20 -56 57 c-64 65 -64 57 1 187 29 59 61 103 99 140 52 50 59 54
97 51 42 -3 42 -3 212 167 l170 170 -7 44 c-6 42 -5 44 49 96 30 29 55 56 55
59 0 4 -8 15 -17 25 -16 18 -19 17 -78 -42 l-60 -60 -100 100 -99 100 57 58
c31 32 57 62 57 67 0 6 -9 16 -20 23 -18 11 -26 6 -77 -43 -31 -30 -62 -55
-68 -55 -7 0 -56 22 -111 49 -72 36 -114 64 -153 104 -48 49 -52 58 -46 86 10
45 -12 74 -180 241 l-145 145 -50 1 c-47 0 -54 4 -103 52 -29 29 -55 52 -58
52 -3 0 -13 -8 -22 -18z m218 -172 c17 -18 16 -21 -40 -76 l-57 -56 20 -21 21
-20 57 56 58 57 23 -22 23 -22 -47 -50 c-27 -28 -52 -54 -57 -57 -12 -9 11
-39 29 -39 7 0 36 23 64 50 28 28 54 50 56 50 2 0 13 -10 25 -22 l20 -22 -57
-58 -57 -58 20 -21 21 -20 53 55 c30 31 59 56 65 56 7 0 18 -11 25 -25 14 -25
11 -29 -123 -163 -75 -76 -137 -141 -137 -147 0 -5 14 -24 32 -42 17 -18 30
-35 27 -37 -9 -9 -48 -9 -158 -2 l-113 8 -64 -63 -64 -64 -100 100 -100 100
73 75 c58 60 80 91 108 155 31 72 47 93 173 222 77 79 145 143 151 143 7 0 20
-9 30 -20z m361 -445 c51 -52 84 -74 166 -114 98 -46 110 -56 237 -185 133
-134 135 -135 116 -156 -10 -11 -23 -20 -29 -20 -6 0 -34 23 -63 52 -44 44
-54 49 -67 38 -24 -19 -20 -30 36 -87 51 -51 51 -53 33 -73 -10 -11 -23 -20
-29 -20 -6 0 -34 23 -63 52 -44 44 -54 49 -67 38 -24 -19 -20 -30 36 -87 51
-51 51 -53 33 -73 -18 -20 -40 -26 -47 -12 -2 4 -24 27 -50 51 -40 38 -49 42
-63 31 -8 -7 -15 -16 -15 -19 0 -4 23 -32 50 -61 28 -29 50 -57 50 -60 0 -4
-9 -15 -20 -25 -25 -22 -17 -28 -183 139 l-128 129 -39 -38 c-51 -50 -55 -40
-46 118 l7 122 -61 63 c-33 35 -60 66 -60 70 0 10 183 192 193 192 5 0 38 -29
73 -65z m-839 -277 l143 -142 33 32 c18 18 38 32 45 32 14 0 15 -68 3 -193 -6
-76 -6 -80 19 -101 14 -13 43 -41 65 -64 l39 -42 -99 -100 -100 -100 -70 69
c-55 54 -91 79 -165 115 -88 42 -105 55 -234 185 -138 139 -140 140 -121 161
10 11 23 20 30 20 7 0 35 -25 64 -54 l51 -55 20 22 20 21 -45 39 c-61 52 -72
73 -49 98 9 10 21 19 25 19 5 0 32 -23 60 -51 40 -40 56 -49 68 -42 26 17 22
27 -29 82 -27 29 -50 57 -50 61 0 4 9 15 20 25 23 20 26 19 98 -53 19 -20 39
-31 48 -28 31 12 24 35 -25 82 -28 27 -51 53 -51 58 0 10 30 46 38 46 3 0 70
-64 149 -142z m618 -123 c0 -105 4 -145 14 -162 11 -16 12 -25 4 -35 -9 -11
-35 -12 -132 -5 -103 7 -125 6 -155 -8 -58 -28 -63 -16 -54 126 8 111 7 125
-11 155 -30 51 -15 57 131 49 99 -5 128 -3 148 9 52 30 55 23 55 -129z m252
-247 c51 -51 93 -97 93 -103 0 -6 -27 -37 -61 -70 -47 -47 -71 -82 -108 -160
-45 -94 -57 -109 -186 -237 -116 -118 -139 -136 -155 -128 -36 19 -32 32 24
89 56 57 57 58 39 80 l-18 22 -55 -55 c-30 -31 -60 -56 -66 -56 -6 0 -19 9
-29 20 -18 20 -18 22 40 80 50 50 56 61 45 74 -20 25 -32 20 -85 -34 -27 -27
-53 -50 -58 -50 -4 0 -18 9 -29 20 l-22 20 59 60 c50 50 56 61 45 74 -19 24
-30 20 -87 -36 -44 -44 -56 -51 -71 -42 -38 24 -25 47 113 184 74 74 135 139
135 145 0 5 -14 23 -30 38 -17 16 -27 33 -24 39 6 10 196 3 237 -8 12 -4 38
15 85 60 37 36 69 66 71 66 2 0 46 -41 98 -92z"/>
<path d="M328 2543 c0 -10 0 -29 1 -42 3 -38 -7 -56 -23 -41 -12 9 -17 7 -25
-9 -16 -29 -14 -46 3 -32 10 9 28 3 79 -26 36 -20 64 -40 61 -45 -3 -4 -2 -13
1 -18 10 -15 48 38 41 56 -3 8 -11 12 -17 8 -7 -4 -32 4 -55 17 -42 23 -44 25
-44 71 0 27 2 48 4 48 18 0 126 -74 126 -85 0 -25 19 -17 35 15 20 38 19 43
-5 35 -14 -4 -42 5 -84 29 -71 40 -95 44 -98 19z"/>
<path d="M3597 2544 c-13 -13 -7 -24 11 -24 18 0 42 -37 42 -65 0 -22 -18 -18
-82 15 -49 26 -60 28 -82 18 -34 -15 -33 -29 9 -105 36 -64 55 -79 55 -44 0
14 18 30 61 52 34 18 64 40 67 48 3 8 -5 35 -19 60 -23 43 -46 60 -62 45z
m-33 -97 l38 -24 -37 -22 c-40 -23 -40 -23 -66 22 -12 22 -5 47 13 47 7 0 30
-11 52 -23z"/>
<path d="M3810 2385 c0 -8 -19 -24 -42 -34 -170 -77 -181 -81 -193 -71 -20 17
-25 -2 -10 -38 15 -35 35 -43 35 -13 0 12 9 23 23 27 12 4 45 17 72 29 28 12
71 32 98 43 47 21 52 27 41 56 -8 20 -24 21 -24 1z"/>
<path d="M155 2360 c-3 -6 1 -13 10 -16 19 -8 30 0 20 15 -8 14 -22 14 -30 1z"/>
<path d="M220 2331 c0 -5 -3 -17 -7 -26 -5 -14 -2 -16 16 -10 35 11 130 -32
143 -64 l10 -26 18 35 c25 46 25 52 -3 45 -14 -4 -48 6 -89 25 -71 32 -88 36
-88 21z"/>
<path d="M3768 2223 c-19 -5 -25 -23 -7 -23 13 0 42 -68 34 -80 -11 -17 -25
-11 -74 30 -49 41 -89 51 -110 27 -8 -10 -4 -33 15 -90 24 -73 44 -99 44 -59
0 14 18 24 71 41 38 12 73 29 76 37 5 15 -15 104 -26 115 -3 3 -14 4 -23 2z
m-60 -92 c12 -11 22 -24 22 -29 0 -10 -33 -22 -61 -22 -21 0 -44 71 -27 81 13
8 30 0 66 -30z"/>
<path d="M173 2198 c-8 -11 -43 -103 -43 -115 0 -2 12 -3 26 -3 21 0 24 3 15
14 -14 17 14 89 32 83 7 -2 20 -33 29 -68 18 -64 37 -89 69 -89 13 0 24 21 43
77 26 79 27 95 2 74 -11 -9 -26 -7 -67 8 -85 30 -95 32 -106 19z m102 -48 c3
-5 15 -10 25 -10 27 0 31 -12 18 -53 -19 -60 -52 -44 -64 31 -6 40 5 57 21 32z"/>
<path d="M3839 2013 c-1 -4 -1 -11 0 -15 0 -4 -18 -12 -42 -19 -23 -6 -55 -15
-72 -20 -22 -7 -31 -6 -38 6 -14 26 -25 7 -17 -31 10 -45 16 -50 29 -26 7 13
30 23 73 32 83 17 97 25 91 50 -6 21 -22 37 -24 23z"/>
<path d="M3904 1999 c-3 -6 -2 -15 2 -19 12 -12 38 5 30 19 -9 14 -23 14 -32
0z"/>
<path d="M96 1975 c-3 -8 1 -30 9 -49 19 -45 19 -46 -4 -46 -25 0 -31 -28 -13
-63 14 -29 10 -42 -11 -42 -7 0 -13 -12 -15 -27 -2 -16 1 -28 7 -28 6 0 11 5
11 10 0 13 47 13 108 -2 38 -8 49 -15 45 -26 -4 -10 -1 -13 8 -10 16 5 26 78
10 78 -5 0 -11 -5 -13 -10 -2 -7 -20 -7 -51 -1 -56 10 -52 7 -72 54 -15 35
-14 37 4 37 40 0 126 -25 138 -40 13 -16 15 -13 26 38 5 21 2 22 -26 17 -60
-9 -100 7 -121 48 -10 21 -17 40 -15 41 10 9 141 -21 149 -34 9 -13 11 -13 20
0 12 19 13 70 1 70 -5 0 -11 -6 -14 -14 -5 -12 -16 -12 -79 0 -91 17 -95 17
-102 -1z"/>
<path d="M3812 1858 c-6 -7 -18 -32 -27 -55 -26 -66 -64 -66 -65 0 0 17 5 27
15 27 8 0 15 5 15 10 0 6 -14 10 -31 10 l-32 0 7 -52 c9 -64 23 -82 59 -73 20
6 33 21 53 65 29 66 54 74 65 21 5 -25 3 -34 -14 -42 -24 -14 -6 -29 25 -21
18 4 20 11 15 54 -4 27 -9 53 -12 58 -9 14 -61 12 -73 -2z"/>
</g>
</svg>
