<?xml version="1.0" standalone="no"?>
<!DOCTYPE svg PUBLIC "-//W3C//DTD SVG 20010904//EN"
 "http://www.w3.org/TR/2001/REC-SVG-20010904/DTD/svg10.dtd">
<svg version="1.0" xmlns="http://www.w3.org/2000/svg"
 width="400.000000pt" height="400.000000pt" viewBox="0 0 400.000000 400.000000"
 preserveAspectRatio="xMidYMid meet">
<metadata>
Created by potrace 1.16, written by Peter Selinger 2001-2019
</metadata>
<g transform="translate(0.000000,400.000000) scale(0.100000,-0.100000)"
fill="#000000" stroke="none">
<path d="M1910 3459 c0 -5 5 -7 10 -4 16 10 12 -116 -4 -147 l-15 -28 37 0
c28 0 33 3 24 12 -7 7 -12 36 -12 65 0 51 1 53 40 73 21 11 42 20 46 20 11 0
-3 -154 -15 -158 -6 -2 -9 -8 -5 -13 7 -12 64 -12 64 1 0 6 -4 10 -10 10 -6 0
-10 26 -10 58 0 58 0 58 40 80 26 14 40 17 41 9 3 -51 -4 -143 -12 -145 -22
-8 -6 -22 26 -22 19 0 35 5 35 10 0 6 -4 10 -10 10 -6 0 -10 35 -10 84 0 50
-4 88 -11 92 -6 3 -28 -2 -50 -11 -38 -18 -40 -18 -53 1 -14 18 -16 18 -50 1
-45 -21 -56 -21 -56 -2 0 8 -9 15 -20 15 -11 0 -20 -5 -20 -11z"/>
<path d="M2270 3428 c0 -15 3 -19 10 -12 6 6 27 8 48 5 56 -9 56 -41 0 -63
-24 -10 -48 -18 -54 -18 -16 0 -44 -34 -44 -53 0 -20 22 -32 75 -41 22 -4 51
-10 63 -13 21 -5 23 -4 12 14 -10 15 -9 33 3 88 19 82 15 89 -54 104 -63 14
-59 15 -59 -11z"/>
<path d="M1575 3429 c-48 -12 -57 -19 -45 -39 8 -13 11 -13 22 1 7 9 27 19 44
22 26 5 33 2 37 -14 4 -14 -9 -33 -45 -68 -44 -41 -50 -52 -44 -74 4 -16 13
-27 23 -27 38 0 143 23 143 31 0 5 -6 9 -13 9 -9 0 -19 25 -27 71 -12 65 -30
101 -48 98 -4 -1 -25 -5 -47 -10z"/>
<path d="M3135 3190 c6 -20 -20 -70 -36 -70 -5 0 -27 12 -49 26 -33 22 -43 24
-55 14 -28 -23 -96 -132 -91 -145 3 -8 24 -15 53 -17 44 -3 48 -5 45 -27 -1
-14 3 -28 10 -33 22 -13 31 -9 17 8 -8 10 -9 18 -3 22 6 4 41 53 78 110 56 84
66 105 56 117 -18 21 -32 18 -25 -5z"/>
<path d="M707 2986 c-25 -23 -35 -39 -31 -50 3 -9 11 -16 16 -16 6 0 8 6 5 14
-7 18 50 69 69 62 18 -7 18 -8 -6 -85 -18 -60 -18 -65 -2 -87 9 -13 22 -23 27
-23 6 0 36 24 69 53 l59 53 -29 7 c-18 4 -45 26 -69 56 -22 26 -47 49 -55 49
-8 0 -32 -15 -53 -33z"/>
<path d="M506 2931 c-10 -11 -13 -21 -7 -25 5 -4 13 -1 17 5 4 7 15 1 30 -16
13 -16 24 -31 24 -35 0 -4 -13 -24 -30 -45 -27 -34 -28 -39 -15 -59 24 -36
115 -105 130 -99 9 3 17 26 21 54 7 51 12 57 32 37 8 -8 15 -8 27 2 8 7 15 17
15 22 0 7 -5 7 -13 0 -13 -11 -29 2 -163 130 -49 48 -51 48 -68 29z"/>
<path d="M1853 2654 c-20 -21 -17 -28 43 -83 l57 -51 -99 -100 c-54 -55 -102
-100 -108 -100 -6 0 -34 23 -62 51 -47 46 -54 50 -74 39 -22 -12 -21 -13 34
-69 31 -31 56 -63 56 -71 0 -38 -101 -218 -152 -270 -50 -53 -54 -55 -98 -52
l-45 3 -159 -159 c-88 -88 -163 -169 -168 -181 -4 -12 -3 -32 2 -46 9 -23 4
-31 -52 -84 -57 -54 -61 -60 -46 -75 9 -9 20 -16 24 -16 5 0 33 25 64 55 l55
54 102 -99 c57 -55 107 -100 112 -100 5 0 12 -7 15 -16 6 -14 4 -15 -9 -4 -14
12 -24 6 -72 -43 -48 -48 -55 -58 -44 -71 8 -9 17 -16 22 -16 4 0 33 25 63 55
l56 55 103 -50 c74 -35 119 -65 163 -107 56 -54 60 -61 52 -88 -4 -17 -5 -39
-1 -50 9 -31 318 -333 347 -341 14 -3 40 -1 57 5 40 14 37 14 35 -6 0 -11 6
-17 16 -17 10 1 16 -2 13 -6 -3 -5 10 -25 28 -45 32 -34 34 -35 50 -18 15 18
13 22 -40 77 l-57 58 107 105 107 106 22 -28 c12 -16 37 -43 55 -61 31 -31 32
-31 49 -13 16 18 14 21 -40 74 -54 54 -56 57 -43 83 8 15 31 63 52 107 25 52
58 100 94 138 51 52 58 57 88 51 46 -9 65 6 236 177 146 148 152 157 147 218
-1 17 14 40 56 82 52 52 55 59 41 73 -8 9 -19 16 -23 16 -5 0 -34 -25 -65 -56
l-56 -56 -98 94 c-54 51 -102 92 -106 91 -18 -6 -7 8 57 72 56 55 65 67 54 80
-20 24 -31 19 -92 -42 l-57 -56 -111 53 c-83 41 -122 66 -155 102 -24 26 -48
48 -54 48 -6 0 -6 12 0 34 5 18 6 43 1 55 -7 20 -233 256 -306 320 -40 34 -45
35 -129 18 -7 -1 -11 5 -11 13 1 8 -19 34 -45 56 -38 35 -48 40 -58 28z m209
-161 c10 -9 18 -21 18 -27 0 -6 -23 -34 -52 -63 -49 -50 -51 -54 -35 -70 16
-16 20 -14 70 35 29 29 57 52 62 52 5 0 19 -10 32 -22 l23 -22 -57 -58 c-54
-55 -56 -59 -40 -75 16 -16 20 -14 72 37 45 45 58 53 72 44 25 -16 40 -43 28
-52 -5 -4 -32 -31 -59 -59 -48 -50 -48 -51 -26 -63 20 -11 27 -7 76 41 45 45
57 52 72 43 38 -25 26 -45 -114 -185 l-137 -138 31 -36 c57 -64 47 -69 -114
-54 l-126 12 -55 -62 c-30 -33 -62 -61 -70 -61 -9 0 -59 43 -111 95 l-95 95
71 74 c40 40 80 93 90 117 54 125 64 139 201 277 77 78 143 142 147 142 4 0
16 -7 26 -17z m358 -447 c49 -51 81 -74 164 -114 97 -47 112 -60 240 -186 75
-75 136 -141 136 -148 0 -15 -30 -48 -44 -48 -6 0 -33 23 -60 50 -54 54 -54
54 -76 40 -12 -8 -4 -20 44 -69 l59 -59 -28 -26 c-29 -27 -41 -31 -47 -18 -2
4 -24 27 -50 51 -40 37 -49 42 -62 31 -14 -11 -9 -19 34 -64 27 -28 50 -56 50
-62 0 -13 -34 -54 -45 -54 -4 0 -32 25 -63 55 -50 49 -57 52 -68 37 -11 -15
-5 -25 43 -74 l56 -56 -28 -28 -27 -27 -143 143 c-155 155 -150 152 -196 96
-10 -11 -23 -17 -32 -13 -16 6 -16 69 -2 215 l5 53 -60 63 c-33 35 -60 67 -60
73 0 8 189 203 197 203 1 0 29 -29 63 -64z m-891 -220 c50 -52 77 -73 89 -70
12 4 13 3 4 -3 -9 -7 4 -26 50 -71 l61 -63 39 42 c31 33 39 38 44 24 9 -23 9
-89 1 -182 -9 -92 -9 -91 82 -180 l45 -43 -101 -100 c-56 -55 -105 -100 -108
-100 -4 0 -38 32 -76 70 -37 39 -73 70 -78 70 -5 0 -49 20 -98 45 -72 36 -106
62 -182 139 -52 53 -99 93 -104 89 -5 -3 -8 0 -5 8 2 7 -11 26 -29 42 -38 34
-41 49 -13 79 l20 22 47 -45 c26 -24 53 -51 59 -59 11 -13 15 -13 30 2 17 17
15 20 -39 75 -31 32 -57 60 -57 63 0 4 11 17 25 30 l25 24 53 -52 c55 -54 62
-58 87 -43 11 8 2 21 -43 66 -49 47 -56 58 -47 75 24 45 43 42 104 -18 45 -44
59 -53 67 -41 13 20 11 37 -4 46 -8 4 -31 27 -52 51 -37 41 -37 43 -20 62 10
11 26 20 35 20 9 0 49 -34 89 -74z m681 -51 c15 -13 16 -23 8 -61 -6 -25 -8
-88 -6 -139 2 -77 6 -97 21 -107 18 -13 18 -14 -1 -31 -17 -16 -30 -16 -137
-7 -111 10 -121 9 -158 -10 -62 -33 -67 -22 -60 135 6 127 5 134 -16 161 l-22
28 23 12 c17 9 50 9 123 3 110 -10 168 -5 186 17 15 18 18 18 39 -1z m251
-391 c52 -53 93 -99 92 -103 -1 -5 -29 -35 -61 -67 -45 -44 -72 -85 -112 -164
-48 -97 -61 -114 -186 -240 -140 -141 -148 -145 -178 -97 -9 14 -1 26 42 68
28 29 52 55 52 59 0 4 -7 13 -16 20 -13 11 -24 5 -74 -45 l-59 -58 -20 24
c-11 13 -20 28 -21 34 0 5 23 33 52 62 49 50 51 54 35 70 -16 16 -20 14 -75
-40 l-58 -57 -23 24 -24 25 53 61 c50 58 52 62 36 78 -15 15 -19 15 -30 2 -6
-8 -32 -34 -57 -58 l-45 -42 -24 25 -23 25 143 145 144 145 -38 39 c-26 26
-34 41 -26 46 7 4 71 4 143 0 l132 -7 25 27 c19 20 22 28 11 34 -8 5 -9 11 -3
15 6 3 12 1 14 -5 2 -6 17 2 33 20 17 17 35 31 41 31 6 0 53 -43 105 -96z"/>
<path d="M3603 2543 c-7 -2 -13 -9 -13 -14 0 -4 6 -6 14 -3 8 3 22 -9 35 -31
35 -60 6 -73 -64 -30 -46 28 -87 32 -106 9 -10 -13 -10 -20 4 -44 9 -15 27
-46 39 -69 11 -22 25 -38 29 -35 5 2 6 11 3 18 -4 10 18 26 65 51 39 21 71 43
71 50 0 16 -50 105 -58 104 -4 0 -13 -3 -19 -6z"/>
<path d="M3755 2210 c-3 -5 0 -10 8 -10 14 0 37 -47 37 -76 0 -25 -35 -14 -84
26 -53 44 -63 47 -91 26 -19 -14 -19 -15 3 -85 21 -64 42 -93 42 -57 0 9 25
23 63 35 96 33 94 30 74 95 -17 53 -37 70 -52 46z"/>
<path d="M173 2188 c-12 -16 -33 -76 -33 -94 0 -8 10 -14 23 -14 16 0 18 3 8
9 -11 7 -11 15 -1 45 6 19 16 39 22 42 16 10 36 -23 44 -72 7 -50 20 -69 52
-79 19 -5 25 0 42 39 22 52 38 130 21 106 -8 -12 -19 -11 -74 8 -74 25 -91 27
-104 10z"/>
<path d="M103 1974 c-3 -9 -1 -31 5 -48 16 -42 16 -43 -9 -49 -17 -5 -20 -11
-15 -31 20 -82 20 -80 3 -73 -11 4 -18 -1 -22 -14 -8 -24 3 -39 14 -21 7 12
23 11 139 -14 13 -2 20 -9 17 -14 -3 -6 -2 -10 3 -10 10 0 22 23 22 43 0 8
-21 13 -55 14 -30 1 -60 5 -66 9 -14 8 -41 73 -35 83 7 11 139 -17 148 -32 6
-9 11 -8 18 3 13 20 13 50 0 50 -5 0 -10 -4 -10 -8 0 -5 -27 -4 -59 1 -52 8
-60 12 -65 36 -3 14 -8 36 -12 49 -6 20 -4 22 17 14 13 -5 46 -13 74 -17 27
-4 54 -14 61 -22 9 -13 12 -11 18 17 7 36 0 52 -13 31 -8 -13 -32 -10 -149 15
-15 3 -25 -1 -29 -12z"/>
</g>
</svg>
